<?xml version="1.0" encoding="UTF-8" standalone="no"?>
<svg
   xmlns:dc="http://purl.org/dc/elements/1.1/"
   xmlns:cc="http://creativecommons.org/ns#"
   xmlns:rdf="http://www.w3.org/1999/02/22-rdf-syntax-ns#"
   xmlns:svg="http://www.w3.org/2000/svg"
   xmlns="http://www.w3.org/2000/svg"
   xmlns:sodipodi="http://sodipodi.sourceforge.net/DTD/sodipodi-0.dtd"
   xmlns:inkscape="http://www.inkscape.org/namespaces/inkscape"
   sodipodi:docname="njlogo.svg"
   inkscape:version="1.0 (4035a4fb49, 2020-05-01)"
   id="svg8"
   version="1.1"
   viewBox="0 0 35 61"
   height="61mm"
   width="35mm">
  <defs
     id="defs2" />
  <sodipodi:namedview
     inkscape:window-maximized="1"
     inkscape:window-y="-8"
     inkscape:window-x="-8"
     inkscape:window-height="746"
     inkscape:window-width="1366"
     inkscape:snap-nodes="false"
     showgrid="false"
     inkscape:document-rotation="0"
     inkscape:current-layer="layer1"
     inkscape:document-units="mm"
     inkscape:cy="107.8996"
     inkscape:cx="134.14511"
     inkscape:zoom="0.70000001"
     inkscape:pageshadow="2"
     inkscape:pageopacity="0.0"
     borderopacity="1.0"
     bordercolor="#666666"
     pagecolor="#ffffff"
     id="base" />
  <metadata
     id="metadata5">
    <rdf:RDF>
      <cc:Work
         rdf:about="">
        <dc:format>image/svg+xml</dc:format>
        <dc:type
           rdf:resource="http://purl.org/dc/dcmitype/StillImage" />
        <dc:title />
      </cc:Work>
    </rdf:RDF>
  </metadata>
  <g
     id="layer1"
     inkscape:groupmode="layer"
     inkscape:label="Layer 1">
    <path
       d="m 80.724609,4.1152344 c -6.85765,0 -13.584418,1.3461386 -20.18164,4.0371094 -6.510418,2.6041702 -13.802081,7.2916612 -21.875,14.0625002 L 26.734375,7.5566406 3.2519531,7.7617188 V 149.42773 H 38.667969 V 92.527344 c 0,-14.75695 0.520832,-24.350266 1.5625,-28.777344 1.996531,-8.506949 5.556202,-15.147568 10.677734,-19.921875 5.20834,-4.861111 11.41428,-7.291016 18.619141,-7.291016 5.555558,0 10.198998,1.476347 13.93164,4.427735 3.819447,2.864591 6.46767,7.073348 7.94336,12.628906 0.73947,2.629226 1.299715,6.574146 1.6875,11.763672 0.06836,5.7e-5 0.136724,-1.05e-4 0.205078,0 0.83218,0.0019 1.663917,1.59e-4 2.496094,0 0.744105,1.17e-4 1.488316,3.8e-5 2.232422,0 0.783137,-3e-5 1.566459,-4e-6 2.349612,0 0.81984,0 1.63913,-4e-6 2.45898,0 h 3.03906 2.42188 2.49609 2.50196 2.5 2.94726 2.7793 2.41992 2.49609 2.46875 v -9.548828 c 0,-16.319452 -4.12261,-28.647129 -12.36914,-36.980469 C 106.72417,9.0190946 94.78712,4.1152344 80.724609,4.1152344 Z"
       transform="scale(0.26458333)"
       style="font-style:normal;font-variant:normal;font-weight:bold;font-stretch:normal;font-size:70.5556px;line-height:1.25;font-family:'Century Gothic';-inkscape-font-specification:'Century Gothic Bold';text-align:center;letter-spacing:0.00529167px;text-anchor:middle;fill:#cccccc;stroke-width:0.999999;fill-opacity:1"
       id="text835" />
    <text
       id="text839"
       y="114.1488"
       x="68.791664"
       style="font-size:19.7556px;line-height:1.25;font-family:Meiryo;-inkscape-font-specification:Meiryo;text-align:center;letter-spacing:0.00529167px;text-anchor:middle;stroke-width:0.264583"
       xml:space="preserve"><tspan
         style="stroke-width:0.264583"
         y="114.1488"
         x="68.791664"
         id="tspan837"
         sodipodi:role="line" /></text>
    <path
       d="m 25.062927,17.989445 c -0.133126,-8.4e-5 -0.266288,7.94e-4 -0.399466,5.3e-4 v 22.140246 c 0,2.96278 -0.246781,4.88037 -0.740033,5.75313 -0.493261,0.87275 -1.24395,1.30948 -2.25288,1.30948 -0.98651,0 -2.006751,-0.29892 -3.060514,-0.89607 -1.053775,-0.59715 -2.331658,-1.76847 -3.833839,-3.51399 l -6.7934627,6.51122 c 3.8339337,4.89204 8.4746607,7.33806 13.9228877,7.33806 2.668049,0 4.955313,-0.63126 6.86105,-1.89446 1.90577,-1.28617 3.27315,-3.00871 4.10273,-5.16764 0.82955,-2.15893 1.24448,-5.91408 1.24448,-11.26546 V 17.989456 h -0.75335 -0.68422 -1.45907 -1.79605 c -0.25164,0 -0.50325,-3e-6 -0.75488,0 h -1.346407 c -0.501884,5e-6 -1.003792,5.8e-5 -1.505673,0 -0.250508,-2.4e-5 -0.500798,-1.85e-4 -0.751303,0 z"
       style="font-size:70.0253px;line-height:1.25;font-family:Meiryo;-inkscape-font-specification:Meiryo;text-align:center;letter-spacing:0.00525189px;text-anchor:middle;white-space:pre;inline-size:69.602;opacity:1;fill:#cccccc;stroke:none;stroke-width:0.261415;fill-opacity:1"
       id="text847" />
  </g>
</svg>
